<?xml version="1.0" encoding="UTF-8" standalone="no"?>
<!DOCTYPE svg PUBLIC "-//W3C//DTD SVG 1.1//EN" "http://www.w3.org/Graphics/SVG/1.1/DTD/svg11.dtd">
<svg width="100%" height="100%" viewBox="0 0 1335 345" version="1.1" xmlns="http://www.w3.org/2000/svg" xmlns:xlink="http://www.w3.org/1999/xlink" xml:space="preserve" xmlns:serif="http://www.serif.com/" style="fill-rule:evenodd;clip-rule:evenodd;stroke-linecap:round;stroke-linejoin:round;stroke-miterlimit:1.5;">
    <g transform="matrix(1,0,0,1,-260.397,-2771.83)">
        <g transform="matrix(1.5287,0,0,1.5287,1401.48,3009.01)">
            <path d="M116,53C123.961,47.225 123,54 123,54C123.26,60.103 116,65 116,65L116,53ZM113,69L113,27L116,25L116,51C116,51 123.303,45.451 126,50C126,50 128.02,54.52 124,60C124,60 122.041,62.958 116,67L113,69Z" style="fill:rgb(83,84,83);"/>
        </g>
        <g transform="matrix(1.64056,0,0,1.64056,1210.98,2930.03)">
            <path d="M231,37.474L234,37L234,42L231,42.474L231,52.474L234,52L234,57L231,57.474L231,66L227,67L227,57.947L222,59.053L222,68L218,69L218,59.526L215,60L215,55L218,54.526L218,44.526L215,45L215,40L218,39.526L218,31L222,30L222,39.053L227,37.947L227,29L231,28L231,37.474ZM222,44.053L222,54.053L227,52.947L227,42.947L222,44.053Z" style="fill:rgb(83,84,83);"/>
        </g>
        <g transform="matrix(0.921766,0,0,0.921766,28.5912,220.864)">
            <rect x="256" y="2772" width="72.972" height="72.972" style="fill:none;stroke:rgb(83,84,83);stroke-width:9.04px;"/>
        </g>
        <g transform="matrix(0.921766,0,0,0.921766,95.8539,220.864)">
            <rect x="256" y="2772" width="72.972" height="72.972" style="fill:none;stroke:rgb(83,84,83);stroke-width:9.04px;"/>
        </g>
        <g transform="matrix(0.921766,0,0,0.921766,163.117,220.864)">
            <rect x="256" y="2772" width="72.972" height="72.972" style="fill:none;stroke:rgb(83,84,83);stroke-width:9.04px;"/>
        </g>
        <g transform="matrix(0.921766,0,0,0.921766,230.379,220.864)">
            <rect x="256" y="2772" width="72.972" height="72.972" style="fill:none;stroke:rgb(83,84,83);stroke-width:9.04px;"/>
        </g>
        <g transform="matrix(0.921766,0,0,0.921766,297.642,220.864)">
            <rect x="256" y="2772" width="72.972" height="72.972" style="fill:none;stroke:rgb(83,84,83);stroke-width:9.04px;"/>
        </g>
        <g transform="matrix(0.921766,0,0,0.921766,364.905,220.864)">
            <rect x="256" y="2772" width="72.972" height="72.972" style="fill:none;stroke:rgb(83,84,83);stroke-width:9.04px;"/>
        </g>
        <g transform="matrix(0.921766,0,0,0.921766,432.168,220.864)">
            <rect x="256" y="2772" width="72.972" height="72.972" style="fill:none;stroke:rgb(83,84,83);stroke-width:9.04px;"/>
        </g>
        <g transform="matrix(0.921766,0,0,0.921766,499.431,220.864)">
            <rect x="256" y="2772" width="72.972" height="72.972" style="fill:none;stroke:rgb(83,84,83);stroke-width:9.04px;"/>
        </g>
        <g transform="matrix(0.921766,0,0,0.921766,566.693,220.864)">
            <rect x="256" y="2772" width="72.972" height="72.972" style="fill:none;stroke:rgb(83,84,83);stroke-width:9.04px;"/>
        </g>
        <g transform="matrix(0.921766,0,0,0.921766,633.956,220.864)">
            <rect x="256" y="2772" width="72.972" height="72.972" style="fill:none;stroke:rgb(83,84,83);stroke-width:9.04px;"/>
        </g>
        <g transform="matrix(0.921766,0,0,0.921766,701.219,220.864)">
            <rect x="256" y="2772" width="72.972" height="72.972" style="fill:none;stroke:rgb(83,84,83);stroke-width:9.04px;"/>
        </g>
        <g transform="matrix(0.921766,0,0,0.921766,768.482,220.864)">
            <rect x="256" y="2772" width="72.972" height="72.972" style="fill:none;stroke:rgb(83,84,83);stroke-width:9.04px;"/>
        </g>
        <g transform="matrix(0.921766,0,0,0.921766,835.744,220.864)">
            <rect x="256" y="2772" width="72.972" height="72.972" style="fill:none;stroke:rgb(83,84,83);stroke-width:9.04px;"/>
        </g>
        <g transform="matrix(0.921766,0,0,0.921766,903.007,220.864)">
            <rect x="256" y="2772" width="72.972" height="72.972" style="fill:none;stroke:rgb(83,84,83);stroke-width:9.04px;"/>
        </g>
        <g transform="matrix(0.921766,0,0,0.921766,1239.94,422.827)">
            <rect x="256" y="2772" width="72.972" height="72.972" style="fill:none;stroke:rgb(83,84,83);stroke-width:9.04px;"/>
        </g>
        <g transform="matrix(0.921766,0,0,0.921766,1239.94,490.089)">
            <rect x="256" y="2772" width="72.972" height="72.972" style="fill:none;stroke:rgb(83,84,83);stroke-width:9.04px;"/>
        </g>
        <g transform="matrix(0.921766,0,0,0.921766,970.27,220.864)">
            <rect x="256" y="2772" width="72.972" height="72.972" style="fill:none;stroke:rgb(83,84,83);stroke-width:9.04px;"/>
        </g>
        <g transform="matrix(0.921766,0,0,0.921766,129.485,288.127)">
            <rect x="256" y="2772" width="72.972" height="72.972" style="fill:none;stroke:rgb(83,84,83);stroke-width:9.04px;"/>
        </g>
        <g transform="matrix(0.921766,0,0,0.921766,196.748,288.127)">
            <rect x="256" y="2772" width="72.972" height="72.972" style="fill:none;stroke:rgb(83,84,83);stroke-width:9.04px;"/>
        </g>
        <g transform="matrix(0.921766,0,0,0.921766,264.011,288.127)">
            <rect x="256" y="2772" width="72.972" height="72.972" style="fill:none;stroke:rgb(83,84,83);stroke-width:9.04px;"/>
        </g>
        <g transform="matrix(0.921766,0,0,0.921766,331.274,288.127)">
            <rect x="256" y="2772" width="72.972" height="72.972" style="fill:none;stroke:rgb(83,84,83);stroke-width:9.04px;"/>
        </g>
        <g transform="matrix(0.921766,0,0,0.921766,398.536,288.127)">
            <rect x="256" y="2772" width="72.972" height="72.972" style="fill:none;stroke:rgb(83,84,83);stroke-width:9.04px;"/>
        </g>
        <g transform="matrix(0.921766,0,0,0.921766,465.799,288.127)">
            <rect x="256" y="2772" width="72.972" height="72.972" style="fill:none;stroke:rgb(83,84,83);stroke-width:9.04px;"/>
        </g>
        <g transform="matrix(0.921766,0,0,0.921766,533.062,288.127)">
            <rect x="256" y="2772" width="72.972" height="72.972" style="fill:none;stroke:rgb(83,84,83);stroke-width:9.04px;"/>
        </g>
        <g transform="matrix(0.921766,0,0,0.921766,600.325,288.127)">
            <rect x="256" y="2772" width="72.972" height="72.972" style="fill:none;stroke:rgb(83,84,83);stroke-width:9.04px;"/>
        </g>
        <g transform="matrix(0.921766,0,0,0.921766,667.588,288.127)">
            <rect x="256" y="2772" width="72.972" height="72.972" style="fill:none;stroke:rgb(83,84,83);stroke-width:9.04px;"/>
        </g>
        <g transform="matrix(0.921766,0,0,0.921766,734.85,288.127)">
            <rect x="256" y="2772" width="72.972" height="72.972" style="fill:none;stroke:rgb(83,84,83);stroke-width:9.04px;"/>
        </g>
        <g transform="matrix(0.921766,0,0,0.921766,802.113,288.127)">
            <rect x="256" y="2772" width="72.972" height="72.972" style="fill:none;stroke:rgb(83,84,83);stroke-width:9.04px;"/>
        </g>
        <g transform="matrix(0.921766,0,0,0.921766,869.376,288.127)">
            <rect x="256" y="2772" width="72.972" height="72.972" style="fill:none;stroke:rgb(83,84,83);stroke-width:9.04px;"/>
        </g>
        <g transform="matrix(0.921766,0,0,0.921766,165.485,355.564)">
            <rect x="256" y="2772" width="72.972" height="72.972" style="fill:none;stroke:rgb(83,84,83);stroke-width:9.04px;"/>
        </g>
        <g transform="matrix(0.921766,0,0,0.921766,232.748,355.564)">
            <rect x="256" y="2772" width="72.972" height="72.972" style="fill:none;stroke:rgb(83,84,83);stroke-width:9.04px;"/>
        </g>
        <g transform="matrix(0.921766,0,0,0.921766,300.011,355.564)">
            <rect x="256" y="2772" width="72.972" height="72.972" style="fill:none;stroke:rgb(83,84,83);stroke-width:9.04px;"/>
        </g>
        <g transform="matrix(0.921766,0,0,0.921766,367.274,355.564)">
            <rect x="256" y="2772" width="72.972" height="72.972" style="fill:none;stroke:rgb(83,84,83);stroke-width:9.04px;"/>
        </g>
        <g transform="matrix(0.921766,0,0,0.921766,434.536,355.564)">
            <rect x="256" y="2772" width="72.972" height="72.972" style="fill:none;stroke:rgb(83,84,83);stroke-width:9.04px;"/>
        </g>
        <g transform="matrix(0.921766,0,0,0.921766,501.799,355.564)">
            <rect x="256" y="2772" width="72.972" height="72.972" style="fill:none;stroke:rgb(83,84,83);stroke-width:9.04px;"/>
        </g>
        <g transform="matrix(0.921766,0,0,0.921766,569.062,355.564)">
            <rect x="256" y="2772" width="72.972" height="72.972" style="fill:none;stroke:rgb(83,84,83);stroke-width:9.04px;"/>
        </g>
        <g transform="matrix(0.921766,0,0,0.921766,636.325,355.564)">
            <rect x="256" y="2772" width="72.972" height="72.972" style="fill:none;stroke:rgb(83,84,83);stroke-width:9.04px;"/>
        </g>
        <g transform="matrix(0.921766,0,0,0.921766,703.588,355.564)">
            <rect x="256" y="2772" width="72.972" height="72.972" style="fill:none;stroke:rgb(83,84,83);stroke-width:9.04px;"/>
        </g>
        <g transform="matrix(0.921766,0,0,0.921766,770.85,355.564)">
            <rect x="256" y="2772" width="72.972" height="72.972" style="fill:none;stroke:rgb(83,84,83);stroke-width:9.04px;"/>
        </g>
        <g transform="matrix(0.921766,0,0,0.921766,838.113,355.564)">
            <rect x="256" y="2772" width="72.972" height="72.972" style="fill:none;stroke:rgb(83,84,83);stroke-width:9.04px;"/>
        </g>
        <g transform="matrix(0.921766,0,0,0.921766,905.376,355.564)">
            <rect x="256" y="2772" width="72.972" height="72.972" style="fill:none;stroke:rgb(83,84,83);stroke-width:9.04px;"/>
        </g>
        <g transform="matrix(0.921766,0,0,0.921766,199.117,422.827)">
            <rect x="256" y="2772" width="72.972" height="72.972" style="fill:none;stroke:rgb(83,84,83);stroke-width:9.04px;"/>
        </g>
        <g transform="matrix(0.921766,0,0,0.921766,266.379,422.827)">
            <rect x="256" y="2772" width="72.972" height="72.972" style="fill:none;stroke:rgb(83,84,83);stroke-width:9.04px;"/>
        </g>
        <g transform="matrix(0.921766,0,0,0.921766,28.5912,490.089)">
            <rect x="256" y="2772" width="72.972" height="72.972" style="fill:none;stroke:rgb(83,84,83);stroke-width:9.04px;"/>
        </g>
        <g transform="matrix(1.41511,0,0,0.921766,-30.4417,490.089)">
            <rect x="256" y="2772" width="72.972" height="72.972" style="fill:none;stroke:rgb(83,84,83);stroke-width:6.98px;"/>
        </g>
        <g transform="matrix(1.41511,0,0,0.921766,72.8211,490.089)">
            <rect x="256" y="2772" width="72.972" height="72.972" style="fill:none;stroke:rgb(83,84,83);stroke-width:6.98px;"/>
        </g>
        <g transform="matrix(6.4199,0,0,0.921766,-1105.14,490.089)">
            <rect x="256" y="2772" width="72.972" height="72.972" style="fill:none;stroke:rgb(83,84,83);stroke-width:1.82px;"/>
        </g>
        <g transform="matrix(0.921766,0,0,0.921766,333.642,422.827)">
            <rect x="256" y="2772" width="72.972" height="72.972" style="fill:none;stroke:rgb(83,84,83);stroke-width:9.04px;"/>
        </g>
        <g transform="matrix(1,0,0,1,-108,-284)">
            <text x="523px" y="3245.9px" style="font-family:'Roboto-Regular', 'Roboto';font-size:50px;fill:rgb(83,84,83);">A</text>
        </g>
        <g transform="matrix(0.921766,0,0,0.921766,400.905,422.827)">
            <rect x="256" y="2772" width="72.972" height="72.972" style="fill:none;stroke:rgb(83,84,83);stroke-width:9.04px;"/>
        </g>
        <g transform="matrix(0.921766,0,0,0.921766,468.168,422.827)">
            <rect x="256" y="2772" width="72.972" height="72.972" style="fill:none;stroke:rgb(83,84,83);stroke-width:9.04px;"/>
        </g>
        <g transform="matrix(0.921766,0,0,0.921766,535.431,422.827)">
            <rect x="256" y="2772" width="72.972" height="72.972" style="fill:none;stroke:rgb(83,84,83);stroke-width:9.04px;"/>
        </g>
        <g transform="matrix(0.921766,0,0,0.921766,602.693,422.827)">
            <rect x="256" y="2772" width="72.972" height="72.972" style="fill:none;stroke:rgb(83,84,83);stroke-width:9.04px;"/>
        </g>
        <g transform="matrix(1,0,0,1,61,-213.606)">
            <text x="523px" y="3245.9px" style="font-family:'Roboto-Regular', 'Roboto';font-size:50px;fill:rgb(83,84,83);">C</text>
        </g>
        <g transform="matrix(0.921766,0,0,0.921766,669.956,422.827)">
            <rect x="256" y="2772" width="72.972" height="72.972" style="fill:none;stroke:rgb(83,84,83);stroke-width:9.04px;"/>
        </g>
        <g transform="matrix(0.921766,0,0,0.921766,737.219,422.827)">
            <rect x="256" y="2772" width="72.972" height="72.972" style="fill:none;stroke:rgb(83,84,83);stroke-width:9.04px;"/>
        </g>
        <g transform="matrix(0.921766,0,0,0.921766,804.482,422.827)">
            <rect x="256" y="2772" width="72.972" height="72.972" style="fill:none;stroke:rgb(83,84,83);stroke-width:9.04px;"/>
        </g>
        <g transform="matrix(0.921766,0,0,0.921766,1037.53,490.089)">
            <rect x="256" y="2772" width="72.972" height="72.972" style="fill:none;stroke:rgb(83,84,83);stroke-width:9.04px;"/>
        </g>
        <g transform="matrix(0.921766,0,0,0.921766,970.27,490.089)">
            <rect x="256" y="2772" width="72.972" height="72.972" style="fill:none;stroke:rgb(83,84,83);stroke-width:9.04px;"/>
        </g>
        <g transform="matrix(1.35791,0,0,0.921766,758.907,490.089)">
            <rect x="256" y="2772" width="72.972" height="72.972" style="fill:none;stroke:rgb(83,84,83);stroke-width:7.18px;"/>
        </g>
        <g transform="matrix(1.35791,0,0,0.921766,659.818,490.089)">
            <rect x="256" y="2772" width="72.972" height="72.972" style="fill:none;stroke:rgb(83,84,83);stroke-width:7.18px;"/>
        </g>
        <g transform="matrix(0.921766,0,0,0.921766,871.744,422.827)">
            <rect x="256" y="2772" width="72.972" height="72.972" style="fill:none;stroke:rgb(83,84,83);stroke-width:9.04px;"/>
        </g>
        <g transform="matrix(0.921766,0,0,0.921766,936.639,288.127)">
            <rect x="256" y="2772" width="72.972" height="72.972" style="fill:none;stroke:rgb(83,84,83);stroke-width:9.04px;"/>
        </g>
        <g transform="matrix(0.921766,0,0,0.921766,1037.53,220.864)">
            <rect x="256" y="2772" width="72.972" height="72.972" style="fill:none;stroke:rgb(83,84,83);stroke-width:9.04px;"/>
        </g>
        <g transform="matrix(1,0,0,1.07729,0,-219.768)">
            <rect x="264.563" y="2843.26" width="100.894" height="62.437" style="fill:none;stroke:rgb(83,84,83);stroke-width:8.02px;"/>
        </g>
        <rect x="264.563" y="2910.53" width="134.526" height="67.437" style="fill:none;stroke:rgb(83,84,83);stroke-width:8.33px;"/>
        <rect x="264.563" y="2977.96" width="170.526" height="67.263" style="fill:none;stroke:rgb(83,84,83);stroke-width:8.33px;"/>
        <path d="M1340.77,2843.26L1340.77,2977.96L1208.61,2977.96L1208.61,2910.7L1240.16,2910.7L1239.87,2843.26L1340.77,2843.26" style="fill:none;stroke:rgb(83,84,83);stroke-width:8.33px;"/>
        <path d="M1174.98,3045.22L1174.98,2978.14L1340.77,2977.96L1340.77,3045.22L1174.98,3045.22Z" style="fill:none;stroke:rgb(83,84,83);stroke-width:8.33px;"/>
        <g transform="matrix(1,0,0,1,27.5256,-283)">
            <text x="523px" y="3245.9px" style="font-family:'Roboto-Regular', 'Roboto';font-size:50px;fill:rgb(83,84,83);">D</text>
        </g>
        <g transform="matrix(1,0,0,1,195.771,-214.606)">
            <text x="523px" y="3245.9px" style="font-family:'Roboto-Regular', 'Roboto';font-size:50px;fill:rgb(83,84,83);">B</text>
        </g>
        <g transform="matrix(1,0,0,1,-8.017,-348.3)">
            <text x="523px" y="3245.9px" style="font-family:'Roboto-Regular', 'Roboto';font-size:50px;fill:rgb(83,84,83);">E</text>
        </g>
        <g transform="matrix(1,0,0,1,97,-282)">
            <text x="523px" y="3245.9px" style="font-family:'Roboto-Regular', 'Roboto';font-size:50px;fill:rgb(83,84,83);">F</text>
        </g>
        <g transform="matrix(1,0,0,1,159,-281)">
            <text x="523px" y="3245.9px" style="font-family:'Roboto-Regular', 'Roboto';font-size:50px;fill:rgb(83,84,83);">G</text>
        </g>
        <path d="M1509.5,2995L1523.79,3022L1495.21,3022L1509.5,2995Z" style="fill:rgb(83,84,83);"/>
        <g transform="matrix(-1,-1.22465e-16,1.22465e-16,-1,3019,6093)">
            <path d="M1509.5,2995L1523.79,3022L1495.21,3022L1509.5,2995Z" style="fill:rgb(83,84,83);"/>
        </g>
    </g>
</svg>
