<?xml version="1.0" encoding="UTF-8" standalone="no"?>
<!DOCTYPE svg PUBLIC "-//W3C//DTD SVG 1.1//EN" "http://www.w3.org/Graphics/SVG/1.1/DTD/svg11.dtd">
<svg width="100%" height="100%" viewBox="0 0 50 138" version="1.1" xmlns="http://www.w3.org/2000/svg" xmlns:xlink="http://www.w3.org/1999/xlink" xml:space="preserve" xmlns:serif="http://www.serif.com/" style="fill-rule:evenodd;clip-rule:evenodd;stroke-linejoin:round;stroke-miterlimit:2;">
    <g transform="matrix(1,0,0,1,-34.5473,-19)">
        <g>
            <g transform="matrix(1,0,0,1,0,-9)">
                <path d="M55.123,70.175C55.073,69.967 55.035,69.915 55,70C55,70 44.472,47.082 65,28C65,28 82.862,48.022 65,74C65,74 62.509,76.28 59.009,79.848C59.828,83.84 60.813,88.228 62,93C62,93 62.205,93.89 62.559,95.456L62.623,95.45C66.196,95.126 71.727,95.224 76,98C76,98 90.742,107.909 81,123C81,123 78.217,128.59 70.26,132.111C71.642,139.466 72.723,146.077 73,150C73.307,150.073 71.186,165.616 59,165C59,165 49.477,166.412 46,155C46,155 43.014,144.044 55.123,145C55.123,145 64.175,150.809 55,158C55,158 53.512,158.582 52,158C52,158 54.693,164.342 60,163C65.307,161.658 69.112,156.714 70,153C70.528,150.794 69.82,143.965 67.843,133.029C66.539,133.258 57.326,134.65 49,130C40.016,124.983 36.34,117.374 35,111C35,111 33.981,106.748 35,101.291C35.842,96.778 38.43,91.44 41,87C41,87 48.805,76.104 51,74C51,74 52.727,72.59 55.123,70.175ZM57.125,81.795C57.806,85.444 58.72,90.06 59.958,95.806C59.348,95.915 59,96 59,96C48.846,100.782 49,109 49,109C49.559,120.819 59,123 59,123C51.508,116.714 55,109 55,109C56.047,105.212 58.939,103.474 61.345,102.676C61.385,102.663 61.424,102.65 61.464,102.637C61.637,103.407 61.816,104.195 62,105C64.216,114.7 65.975,123.072 67.285,130.011C61.227,131.358 51.61,129.317 49,128C46.624,126.801 33.169,115.201 41,102C45.206,94.91 51.817,87.359 57.037,81.887L57.125,81.795ZM69.694,129.142C67.847,119.588 65.619,109.241 64.037,102.076C64.108,102.067 64.176,102.059 64.24,102.052C64.715,102.003 65,102 65,102C74.455,103.011 76,111 76,111C79.899,122.86 71,128 71,128C70.689,128.451 70.244,128.829 69.694,129.142ZM56.899,68.323C55.087,56.957 55.625,55.88 56,51C56.947,38.686 65,39 65,39C65,39 67.017,40.771 67.959,42.065C68.526,42.845 69.067,43.814 69.342,44.919C70.253,48.586 69,51 69,51C66.668,57.814 60.923,63.955 57.037,68.174L56.899,68.323Z"/>
            </g>
        </g>
        <g id="Layer1">
        </g>
    </g>
</svg>
